ply
format ascii 1.0
comment File exported by Rhinoceros Version 7.0
element vertex 48
property float x
property float y
property float z
property float nx
property float ny
property float nz
element face 24
property list uchar uint vertex_indices
end_header
0 80 12.5268487930298 -0.4597008 0.7962252 0.3933199
-40 69.2820358276367 -12.5268487930298 -0.4597008 0.7962252 0.39332
-69.2820358276367 40 12.5268487930298 -0.4597008 0.7962252 0.3933199
0 0 174.476501464844 -0.4597008 0.7962252 0.3933199
-69.2820358276367 -40 12.5268487930298 -0.9194017 0 0.3933198
0 0 174.476501464844 -0.9194017 0 0.3933199
-69.2820358276367 40 12.5268487930298 -0.9194017 0 0.3933198
-80 0 -12.5268487930298 -0.9194017 0 0.3933198
-69.2820358276367 -40 12.5268487930298 -0.4597008 -0.7962252 0.3933199
0 -80 12.5268487930298 -0.4597008 -0.7962252 0.3933199
0 0 174.476501464844 -0.4597008 -0.7962252 0.3933199
-40 -69.2820358276367 -12.5268487930298 -0.4597008 -0.7962252 0.39332
0 -80 12.5268487930298 0.4597008 -0.7962252 0.3933199
40 -69.2820358276367 -12.5268487930298 0.4597008 -0.7962252 0.39332
69.2820358276367 -40 12.5268487930298 0.4597008 -0.7962252 0.3933199
0 0 174.476501464844 0.4597008 -0.7962252 0.3933199
69.2820358276367 -40 12.5268487930298 0.9194017 0 0.3933198
80 0 -12.5268487930298 0.9194017 0 0.3933198
69.2820358276367 40 12.5268487930298 0.9194017 0 0.3933198
0 0 174.476501464844 0.9194017 0 0.3933199
69.2820358276367 40 12.5268487930298 0.4597008 0.7962252 0.3933199
0 80 12.5268487930298 0.4597008 0.7962252 0.3933199
0 0 174.476501464844 0.4597008 0.7962252 0.3933199
40 69.2820358276367 -12.5268487930298 0.4597008 0.7962252 0.39332
40 -69.2820358276367 -12.5268487930298 0.7962252 -0.4597008 -0.3933199
0 0 -174.476501464844 0.7962252 -0.4597008 -0.3933199
80 0 -12.5268487930298 0.7962252 -0.4597008 -0.3933199
69.2820358276367 -40 12.5268487930298 0.7962252 -0.4597008 -0.39332
40 -69.2820358276367 -12.5268487930298 0 -0.9194017 -0.3933198
-40 -69.2820358276367 -12.5268487930298 0 -0.9194017 -0.3933198
0 0 -174.476501464844 0 -0.9194017 -0.3933199
0 -80 12.5268487930298 0 -0.9194017 -0.3933198
-80 0 -12.5268487930298 -0.7962252 -0.4597008 -0.3933199
-40 -69.2820358276367 -12.5268487930298 -0.7962252 -0.4597008 -0.3933199
-69.2820358276367 -40 12.5268487930298 -0.7962252 -0.4597008 -0.39332
0 0 -174.476501464844 -0.7962252 -0.4597008 -0.3933199
-40 69.2820358276367 -12.5268487930298 -0.7962252 0.4597008 -0.3933199
0 0 -174.476501464844 -0.7962252 0.4597008 -0.3933199
-80 0 -12.5268487930298 -0.7962252 0.4597008 -0.3933199
-69.2820358276367 40 12.5268487930298 -0.7962252 0.4597008 -0.39332
40 69.2820358276367 -12.5268487930298 0 0.9194017 -0.3933198
0 0 -174.476501464844 0 0.9194017 -0.3933199
-40 69.2820358276367 -12.5268487930298 0 0.9194017 -0.3933198
0 80 12.5268487930298 0 0.9194017 -0.3933198
80 0 -12.5268487930298 0.7962252 0.4597008 -0.3933199
40 69.2820358276367 -12.5268487930298 0.7962252 0.4597008 -0.3933199
69.2820358276367 40 12.5268487930298 0.7962252 0.4597008 -0.39332
0 0 -174.476501464844 0.7962252 0.4597008 -0.3933199
3 0 1 2
3 2 3 0
3 4 5 6
3 6 7 4
3 8 9 10
3 9 8 11
3 12 13 14
3 14 15 12
3 16 17 18
3 18 19 16
3 20 21 22
3 21 20 23
3 24 25 26
3 26 27 24
3 28 29 30
3 29 28 31
3 32 33 34
3 33 32 35
3 36 37 38
3 38 39 36
3 40 41 42
3 42 43 40
3 44 45 46
3 45 44 47
