ply
format ascii 1.0
comment File exported by Rhinoceros Version 7.0
element vertex 146
property float x
property float y
property float z
property float nx
property float ny
property float nz
element face 106
property list uchar uint vertex_indices
end_header
47.5262145996094 65.6796112060547 0 0 0.8506508 0.5257311
-47.5262145996094 65.6796112060547 0 0 0.8506508 0.5257312
-58.7456321716309 47.5262145996094 29.3728160858154 0 0.8506508 0.5257311
-18.1533985137939 76.8990325927734 -18.1533985137939 0 0.8506507 0.5257313
18.1533985137939 76.8990325927734 -18.1533985137939 0 0.8506507 0.5257313
58.7456321716309 47.5262145996094 29.3728160858154 1.002076E-08 0.8506508 0.5257311
-18.1533985137939 18.1533985137939 76.8990325927734 -1.503114E-08 0.8506508 0.5257311
18.1533985137939 18.1533985137939 76.8990325927734 1.002076E-08 0.8506508 0.5257311
47.5262145996094 29.3728160858154 58.7456321716309 3.006229E-08 0.8506508 0.5257311
-58.7456321716309 47.5262145996094 29.3728160858154 -3.006229E-08 0.8506508 0.5257311
-47.5262145996094 29.3728160858154 58.7456321716309 -3.006229E-08 0.8506508 0.5257311
-29.3728160858154 58.7456321716309 -47.5262145996094 0 0.8506508 -0.5257311
-18.1533985137939 76.8990325927734 -18.1533985137939 0 0.8506508 -0.5257311
18.1533985137939 76.8990325927734 -18.1533985137939 0 0.8506508 -0.5257311
29.3728160858154 58.7456321716309 -47.5262145996094 0 0.8506508 -0.5257311
0 47.5262145996094 -65.6796112060547 0 0.8506508 -0.5257311
-29.3728160858154 -58.7456321716309 47.5262145996094 0 -0.8506508 0.5257311
-18.1533985137939 -76.8990325927734 18.1533985137939 0 -0.8506508 0.5257311
18.1533985137939 -76.8990325927734 18.1533985137939 0 -0.8506508 0.5257311
29.3728160858154 -58.7456321716309 47.5262145996094 0 -0.8506508 0.5257311
0 -47.5262145996094 65.6796112060547 0 -0.8506508 0.5257311
-29.3728160858154 -58.7456321716309 -47.5262145996094 0 -0.8506508 -0.5257311
18.1533985137939 -76.8990325927734 -18.1533985137939 0 -0.8506508 -0.5257311
-18.1533985137939 -76.8990325927734 -18.1533985137939 0 -0.8506508 -0.5257311
29.3728160858154 -58.7456321716309 -47.5262145996094 0 -0.8506508 -0.5257311
0 -47.5262145996094 -65.6796112060547 0 -0.8506508 -0.5257311
18.1533985137939 -18.1533985137939 76.8990325927734 0.5257311 4.519677E-09 0.8506508
47.5262145996094 -29.3728160858154 58.7456321716309 0.5257311 9.039354E-09 0.8506508
65.6796112060547 0 47.5262145996094 0.5257311 0 0.8506508
47.5262145996094 29.3728160858154 58.7456321716309 0.5257311 -9.039354E-09 0.8506508
18.1533985137939 18.1533985137939 76.8990325927734 0.5257311 -4.519677E-09 0.8506508
47.5262145996094 -29.3728160858154 -58.7456321716309 0.5257311 0 -0.8506508
18.1533985137939 -18.1533985137939 -76.8990325927734 0.5257311 0 -0.8506508
18.1533985137939 18.1533985137939 -76.8990325927734 0.5257311 0 -0.8506508
47.5262145996094 29.3728160858154 -58.7456321716309 0.5257311 0 -0.8506508
65.6796112060547 0 -47.5262145996094 0.5257311 0 -0.8506508
-47.5262145996094 -29.3728160858154 58.7456321716309 -0.5257311 0 0.8506508
-18.1533985137939 -18.1533985137939 76.8990325927734 -0.5257311 0 0.8506508
-18.1533985137939 18.1533985137939 76.8990325927734 -0.5257311 0 0.8506508
-47.5262145996094 29.3728160858154 58.7456321716309 -0.5257311 0 0.8506508
-65.6796112060547 0 47.5262145996094 -0.5257311 0 0.8506508
-18.1533985137939 -18.1533985137939 -76.8990325927734 -0.5257311 4.519677E-09 -0.8506508
-47.5262145996094 -29.3728160858154 -58.7456321716309 -0.5257311 9.039354E-09 -0.8506508
-65.6796112060547 0 -47.5262145996094 -0.5257311 0 -0.8506508
-47.5262145996094 29.3728160858154 -58.7456321716309 -0.5257311 -9.039354E-09 -0.8506508
-18.1533985137939 18.1533985137939 -76.8990325927734 -0.5257311 -4.519677E-09 -0.8506508
47.5262145996094 65.6796112060547 0 0.8506508 0.5257311 0
76.8990325927734 18.1533985137939 18.1533985137939 0.8506508 0.5257311 -4.519677E-09
76.8990325927734 18.1533985137939 -18.1533985137939 0.8506508 0.5257311 4.519677E-09
58.7456321716309 47.5262145996094 29.3728160858154 0.8506508 0.5257311 -9.039354E-09
58.7456321716309 47.5262145996094 -29.3728160858154 0.8506508 0.5257311 9.039354E-09
80 -13.1359224319458 0 0.8506508 -0.5257311 0
50.6271858215332 -60.6621360778809 18.1533985137939 0.8506508 -0.5257311 -4.70733E-08
50.6271858215332 -60.6621360778809 -18.1533985137939 0.8506508 -0.5257311 4.70733E-08
68.7805862426758 -31.2893199920654 29.3728160858154 0.8506508 -0.5257311 -9.41466E-08
68.7805862426758 -31.2893199920654 -29.3728160858154 0.8506508 -0.5257311 9.41466E-08
-76.8990325927734 18.1533985137939 -18.1533985137939 -0.8506508 0.5257311 4.519677E-09
-47.5262145996094 65.6796112060547 0 -0.8506508 0.5257311 0
-58.7456321716309 47.5262145996094 -29.3728160858154 -0.8506508 0.5257311 9.039354E-09
-58.7456321716309 47.5262145996094 29.3728160858154 -0.8506508 0.5257311 -9.039354E-09
-76.8990325927734 18.1533985137939 18.1533985137939 -0.8506508 0.5257311 -4.519677E-09
-50.6271858215332 -60.6621360778809 -18.1533985137939 -0.8506508 -0.5257311 4.70733E-08
-80 -13.1359224319458 0 -0.8506508 -0.5257311 0
-68.7805862426758 -31.2893199920654 -29.3728160858154 -0.8506508 -0.5257311 9.41466E-08
-68.7805862426758 -31.2893199920654 29.3728160858154 -0.8506508 -0.5257311 -9.41466E-08
-50.6271858215332 -60.6621360778809 18.1533985137939 -0.8506508 -0.5257311 -4.70733E-08
29.3728160858154 58.7456321716309 -47.5262145996094 0.4400835 0.6194471 -0.650086
47.5262145996094 29.3728160858154 -58.7456321716309 0.650086 0.4400835 -0.6194471
18.1533985137939 18.1533985137939 -76.8990325927734 0.1604277 0.3522004 -0.9220726
0 47.5262145996094 -65.6796112060547 -2.062121E-08 0.4694149 -0.8829777
29.3728160858154 -58.7456321716309 47.5262145996094 0.309017 -0.5 0.809017
47.5262145996094 -29.3728160858154 58.7456321716309 0.309017 -0.5 0.809017
18.1533985137939 -18.1533985137939 76.8990325927734 0.1290219 -0.2832527 0.9503269
0 -47.5262145996094 65.6796112060547 0.3090169 -0.5000001 0.809017
47.5262145996094 -29.3728160858154 -58.7456321716309 0.309017 -0.5 -0.809017
29.3728160858154 -58.7456321716309 -47.5262145996094 0.3090169 -0.5 -0.809017
0 -47.5262145996094 -65.6796112060547 0.08021384 -0.4819891 -0.8724977
18.1533985137939 -18.1533985137939 -76.8990325927734 0.08021383 -0.2224117 -0.9716474
-18.1533985137939 18.1533985137939 -76.8990325927734 -0.08021383 0.2224117 -0.9716474
-47.5262145996094 29.3728160858154 -58.7456321716309 -0.5873343 0.4583125 -0.6670743
-29.3728160858154 58.7456321716309 -47.5262145996094 -0.4796365 0.6526198 -0.5865461
0 47.5262145996094 -65.6796112060547 -0.3090169 0.5 -0.809017
0 -47.5262145996094 65.6796112060547 -0.2090927 -0.4590389 0.8634602
-18.1533985137939 -18.1533985137939 76.8990325927734 -0.309017 -0.5000001 0.8090169
-47.5262145996094 -29.3728160858154 58.7456321716309 -0.309017 -0.5 0.809017
-29.3728160858154 -58.7456321716309 47.5262145996094 -0.3090169 -0.5 0.809017
-18.1533985137939 -18.1533985137939 -76.8990325927734 -0.1604277 -0.3522004 -0.9220726
-29.3728160858154 -58.7456321716309 -47.5262145996094 -0.309017 -0.5 -0.809017
-47.5262145996094 -29.3728160858154 -58.7456321716309 -0.309017 -0.5 -0.809017
47.5262145996094 29.3728160858154 58.7456321716309 0.809017 0.309017 0.5
76.8990325927734 18.1533985137939 18.1533985137939 0.809017 0.309017 0.5
58.7456321716309 47.5262145996094 29.3728160858154 0.809017 0.309017 0.5
65.6796112060547 0 47.5262145996094 0.809017 0.3090169 0.5000001
76.8990325927734 18.1533985137939 -18.1533985137939 0.809017 0.309017 -0.5
65.6796112060547 0 -47.5262145996094 0.809017 0.3090169 -0.5000001
58.7456321716309 47.5262145996094 -29.3728160858154 0.6194471 0.650086 -0.4400835
50.6271858215332 -60.6621360778809 18.1533985137939 0.5403998 -0.7922978 0.2832527
68.7805862426758 -31.2893199920654 29.3728160858154 0.8584798 -0.263323 0.4400835
47.5262145996094 -29.3728160858154 58.7456321716309 0.6938891 -0.4834645 0.5336478
29.3728160858154 -58.7456321716309 47.5262145996094 0.5368952 -0.7224687 0.4356403
50.6271858215332 -60.6621360778809 -18.1533985137939 0.5558543 -0.7529814 -0.3522004
47.5262145996094 -29.3728160858154 -58.7456321716309 0.7183168 -0.4289223 -0.5477651
68.7805862426758 -31.2893199920654 -29.3728160858154 0.8164831 -0.3214094 -0.4796366
47.5262145996094 -29.3728160858154 -58.7456321716309 0.6381966 -0.5854102 -0.5
29.3728160858154 -58.7456321716309 -47.5262145996094 0.5368952 -0.7224687 -0.4356403
-65.6796112060547 0 47.5262145996094 -0.9029818 -0.1451454 0.4044214
-76.8990325927734 18.1533985137939 18.1533985137939 -0.9875574 0.006717869 0.1571158
-80 -13.1359224319458 0 -0.9959378 -0.04091135 0.08021387
-68.7805862426758 -31.2893199920654 29.3728160858154 -0.8164831 -0.3214094 0.4796365
-76.8990325927734 18.1533985137939 -18.1533985137939 -0.809017 0.309017 -0.5
-58.7456321716309 47.5262145996094 -29.3728160858154 -0.6194471 0.650086 -0.4400835
-65.6796112060547 0 -47.5262145996094 -0.809017 0.3090169 -0.5000001
-47.5262145996094 -29.3728160858154 58.7456321716309 -0.6938891 -0.4834645 0.5336478
-50.6271858215332 -60.6621360778809 18.1533985137939 -0.5558543 -0.7529813 0.3522004
-29.3728160858154 -58.7456321716309 47.5262145996094 -0.5368952 -0.7224687 0.4356403
-47.5262145996094 -29.3728160858154 -58.7456321716309 -0.6938891 -0.4834645 -0.5336478
-29.3728160858154 -58.7456321716309 -47.5262145996094 -0.5368952 -0.7224687 -0.4356403
-50.6271858215332 -60.6621360778809 -18.1533985137939 -0.6381966 -0.5854102 -0.5
-68.7805862426758 -31.2893199920654 -29.3728160858154 -0.8584798 -0.263323 -0.4400835
18.1533985137939 76.8990325927734 -18.1533985137939 0.5 0.809017 -0.309017
47.5262145996094 65.6796112060547 0 0.5000001 0.809017 -0.3090169
18.1533985137939 -76.8990325927734 18.1533985137939 0.4397923 -0.8795845 0.1814217
18.1533985137939 -76.8990325927734 -18.1533985137939 0.443943 -0.8878859 -0.1207197
-18.1533985137939 -76.8990325927734 -18.1533985137939 0 -1 0
18.1533985137939 -76.8990325927734 18.1533985137939 0 -1 0
-18.1533985137939 -76.8990325927734 18.1533985137939 0 -1 0
18.1533985137939 -76.8990325927734 -18.1533985137939 0 -1 0
-18.1533985137939 76.8990325927734 -18.1533985137939 -0.5 0.809017 -0.309017
-47.5262145996094 65.6796112060547 0 -0.5000001 0.809017 -0.3090169
-18.1533985137939 -76.8990325927734 18.1533985137939 -0.443943 -0.8878859 0.1207197
-50.6271858215332 -60.6621360778809 -18.1533985137939 -0.443943 -0.8878859 -0.1207197
-18.1533985137939 -76.8990325927734 -18.1533985137939 -0.4397923 -0.8795845 -0.1814217
-18.1533985137939 18.1533985137939 76.8990325927734 0 0 1
-18.1533985137939 -18.1533985137939 76.8990325927734 0 -0.1814217 0.9834054
18.1533985137939 18.1533985137939 76.8990325927734 0 0 1
80 -13.1359224319458 0 0.9959378 -0.04091135 -0.08021387
76.8990325927734 18.1533985137939 18.1533985137939 0.9775907 -0.02442572 0.2090927
65.6796112060547 0 47.5262145996094 0.8754326 -0.1747036 0.4506623
65.6796112060547 0 -47.5262145996094 0.9029818 -0.1451454 -0.4044214
76.8990325927734 18.1533985137939 -18.1533985137939 0.9875574 0.006717869 -0.1571158
-76.8990325927734 18.1533985137939 18.1533985137939 -0.809017 0.309017 0.5
-65.6796112060547 0 47.5262145996094 -0.809017 0.3090169 0.5000001
-47.5262145996094 29.3728160858154 58.7456321716309 -0.809017 0.309017 0.5
-58.7456321716309 47.5262145996094 29.3728160858154 -0.809017 0.309017 0.5
-76.8990325927734 18.1533985137939 -18.1533985137939 -0.9775907 -0.02442572 -0.2090927
-65.6796112060547 0 -47.5262145996094 -0.8754326 -0.1747036 -0.4506623
3 0 1 2
3 3 1 4
3 0 4 1
3 0 2 5
3 2 6 7
3 8 5 7
3 7 5 2
3 6 9 10
3 11 12 13
3 14 15 11
3 13 14 11
3 16 17 18
3 19 20 16
3 18 19 16
3 21 22 23
3 24 21 25
3 22 21 24
3 26 27 28
3 29 30 28
3 26 28 30
3 31 32 33
3 34 35 31
3 33 34 31
3 36 37 38
3 39 40 36
3 38 39 36
3 41 42 43
3 44 45 43
3 41 43 45
3 46 47 48
3 47 46 49
3 50 46 48
3 51 52 53
3 52 51 54
3 55 51 53
3 56 57 58
3 59 57 60
3 56 60 57
3 61 62 63
3 64 62 65
3 61 65 62
3 66 67 68
3 68 69 66
3 70 71 72
3 72 73 70
3 74 75 76
3 76 77 74
3 69 78 79
3 79 80 81
3 82 83 84
3 84 85 82
3 86 76 87
3 87 88 86
3 89 90 91
3 90 89 92
3 93 94 67
3 67 95 93
3 96 97 98
3 98 99 96
3 100 101 102
3 103 100 104
3 105 106 107
3 107 108 105
3 79 109 110
3 109 79 111
3 112 113 114
3 113 112 108
3 115 116 117
3 117 118 115
3 119 120 95
3 95 66 119
3 96 121 122
3 122 100 96
3 123 124 125
3 124 123 126
3 110 127 80
3 127 110 128
3 129 113 130
3 130 131 129
3 72 132 133
3 132 72 134
3 77 86 78
3 78 68 77
3 97 135 136
3 136 137 97
3 138 139 135
3 135 102 138
3 140 141 142
3 142 143 140
3 118 107 144
3 144 145 118
3 96 99 121
3 104 100 122
3 129 114 113
3 116 131 130
3 78 69 68
3 133 82 72
3 86 77 76
3 98 97 137
3 102 101 138
3 108 112 105
3 115 118 145
3 136 135 139
3 106 144 107
3 95 67 66
3 80 79 110
