ply
format ascii 1.0
comment File exported by Rhinoceros Version 7.0
element vertex 48
property float x
property float y
property float z
property float nx
property float ny
property float nz
element face 24
property list uchar uint vertex_indices
end_header
-46.1880226135254 46.1880226135254 46.1880226135254 0 0.7071068 0.7071068
0 0 80 0 0.5906905 0.8068982
46.1880226135254 46.1880226135254 46.1880226135254 0 0.7071068 0.7071068
-46.1880226135254 46.1880226135254 46.1880226135254 -0.7071068 0 0.7071068
-46.1880226135254 -46.1880226135254 46.1880226135254 -0.7071068 0 0.7071068
0 0 80 -0.5906905 0 0.8068982
-46.1880226135254 -46.1880226135254 46.1880226135254 0 -0.7071068 0.7071068
46.1880226135254 -46.1880226135254 46.1880226135254 0 -0.7071068 0.7071068
0 0 80 0 -0.5906905 0.8068982
46.1880226135254 46.1880226135254 46.1880226135254 0.7071068 0 0.7071068
0 0 80 0.5906905 0 0.8068982
46.1880226135254 -46.1880226135254 46.1880226135254 0.7071068 0 0.7071068
46.1880226135254 46.1880226135254 -46.1880226135254 0.7071068 0 -0.7071068
46.1880226135254 -46.1880226135254 -46.1880226135254 0.7071068 0 -0.7071068
0 0 -80 0.5906905 0 -0.8068982
-46.1880226135254 -46.1880226135254 -46.1880226135254 0 -0.7071068 -0.7071068
0 0 -80 0 -0.5906905 -0.8068982
46.1880226135254 -46.1880226135254 -46.1880226135254 0 -0.7071068 -0.7071068
-46.1880226135254 46.1880226135254 -46.1880226135254 -0.7071068 0 -0.7071068
0 0 -80 -0.5906905 0 -0.8068982
-46.1880226135254 -46.1880226135254 -46.1880226135254 -0.7071068 0 -0.7071068
-46.1880226135254 46.1880226135254 -46.1880226135254 0 0.7071068 -0.7071068
46.1880226135254 46.1880226135254 -46.1880226135254 0 0.7071068 -0.7071068
0 0 -80 0 0.5906905 -0.8068982
80 0 0 0.8068982 0 0.5906905
46.1880226135254 -46.1880226135254 46.1880226135254 0.7071068 -0.7071068 0
46.1880226135254 -46.1880226135254 -46.1880226135254 0.7071068 -0.7071068 0
80 0 0 0.8068982 -0.5906905 0
80 0 0 0.8068982 0 -0.5906905
46.1880226135254 46.1880226135254 46.1880226135254 0.7071068 0.7071068 0
80 0 0 0.8068982 0.5906905 0
46.1880226135254 46.1880226135254 -46.1880226135254 0.7071068 0.7071068 0
-46.1880226135254 46.1880226135254 46.1880226135254 -0.7071068 0.7071068 0
-46.1880226135254 46.1880226135254 -46.1880226135254 -0.7071068 0.7071068 0
-80 0 0 -0.8068982 0.5906905 0
-80 0 0 -0.8068982 0 -0.5906905
-46.1880226135254 -46.1880226135254 46.1880226135254 -0.7071068 -0.7071068 0
-80 0 0 -0.8068982 -0.5906905 0
-46.1880226135254 -46.1880226135254 -46.1880226135254 -0.7071068 -0.7071068 0
-80 0 0 -0.8068982 0 0.5906905
0 80 0 0.5906905 0.8068982 0
0 80 0 0 0.8068982 -0.5906905
0 80 0 -0.5906905 0.8068982 0
0 80 0 0 0.8068982 0.5906905
0 -80 0 0 -0.8068982 0.5906905
0 -80 0 -0.5906905 -0.8068982 0
0 -80 0 0 -0.8068982 -0.5906905
0 -80 0 0.5906905 -0.8068982 0
3 0 1 2
3 3 4 5
3 6 7 8
3 9 10 11
3 12 13 14
3 15 16 17
3 18 19 20
3 21 22 23
3 11 24 9
3 25 26 27
3 13 12 28
3 29 30 31
3 32 33 34
3 20 35 18
3 36 37 38
3 4 3 39
3 31 40 29
3 22 21 41
3 33 32 42
3 2 43 0
3 7 6 44
3 38 45 36
3 17 46 15
3 26 25 47
