ply
format ascii 1.0
comment File exported by Rhinoceros Version 7.0
element vertex 86
property float x
property float y
property float z
property float nx
property float ny
property float nz
element face 25
property list uchar uint vertex_indices
end_header
-22.3662929534912 55.6194877624512 27.7804718017578 -0.8752382 -0.06161202 0.479752
-15.8231287002563 44.666934967041 38.3109512329102 -0.8752382 -0.06161202 0.479752
-16.1479434967041 66.415901184082 40.5114784240723 -0.8752382 -0.06161202 0.479752
-13.6512613296509 26.3066463470459 14.5328273773193 -0.8158994 -0.5781057 0.01008967
-11.2427101135254 23.1547775268555 28.7079334259033 -0.8158994 -0.5781057 0.01008967
-17.0518665313721 31.2418384552002 22.3141632080078 -0.8158994 -0.5781057 0.01008967
-13.4800844192505 80.7403717041016 34.7254257202148 -0.9445729 0.2579526 0.2030827
-16.1479434967041 66.415901184082 40.5114784240723 -0.9356775 0.267305 0.2303379
-16.8569965362549 75.4234085083008 25.7723484039307 -0.9411152 0.28089 0.1881567
-22.3662929534912 55.6194877624512 27.7804718017578 -0.9344837 0.2819997 0.2172932
-22.3662929534912 55.6194877624512 27.7804718017578 -0.9637161 0.2664086 -0.01666383
-16.8569965362549 75.4234085083008 25.7723484039307 -0.9637161 0.2664086 -0.01666383
-16.950511932373 74.3173141479492 13.4972114562988 -0.9637161 0.2664086 -0.01666383
20.7351627349854 55.6194877624512 27.7804718017578 0.8752382 -0.06161202 0.479752
14.5168132781982 66.415901184082 40.5114784240723 0.8752382 -0.06161202 0.479752
14.1919984817505 44.666934967041 38.3109512329102 0.8752382 -0.06161202 0.479752
12.020131111145 26.3066463470459 14.5328273773193 0.8158995 -0.5781057 0.01008969
15.4207353591919 31.2418384552002 22.3141632080078 0.8158995 -0.5781057 0.01008969
9.61157989501953 23.1547775268555 28.7079334259033 0.8158995 -0.5781057 0.01008969
11.8489532470703 80.7403717041016 34.7254257202148 0.9445729 0.2579526 0.2030826
15.2258644104004 75.4234085083008 25.7723484039307 0.9411152 0.2808901 0.1881565
14.5168132781982 66.415901184082 40.5114784240723 0.9356775 0.2673051 0.2303379
20.7351627349854 55.6194877624512 27.7804718017578 0.9344837 0.2819998 0.2172931
20.7351627349854 55.6194877624512 27.7804718017578 0.9637161 0.2664087 -0.01666369
15.3193817138672 74.3173141479492 13.4972114562988 0.9637161 0.2664087 -0.01666369
15.2258644104004 75.4234085083008 25.7723484039307 0.9637161 0.2664087 -0.01666369
-11.2427101135254 23.1547775268555 28.7079334259033 0 -0.4076287 0.9131477
-15.8231287002563 44.666934967041 38.3109512329102 0 -0.4076287 0.9131477
9.61157989501953 23.1547775268555 28.7079334259033 0 -0.4076287 0.9131477
14.1919984817505 44.666934967041 38.3109512329102 0 -0.4076287 0.9131477
-15.8231287002563 44.666934967041 38.3109512329102 0 -0.1006645 0.9949204
-16.1479434967041 66.415901184082 40.5114784240723 0 -0.1006645 0.9949204
14.1919984817505 44.666934967041 38.3109512329102 0 -0.1006645 0.9949204
14.5168132781982 66.415901184082 40.5114784240723 0 -0.1006645 0.9949204
-16.1479434967041 66.415901184082 40.5114784240723 0 0.3745282 0.9272155
-13.4800844192505 80.7403717041016 34.7254257202148 0 0.3745282 0.9272155
14.5168132781982 66.415901184082 40.5114784240723 0 0.3745282 0.9272155
11.8489532470703 80.7403717041016 34.7254257202148 0 0.3745282 0.9272155
8.38932704925537 92.2373733520508 17.8418312072754 0 0.8265585 0.5628508
11.8489532470703 80.7403717041016 34.7254257202148 0 0.8265585 0.5628508
-10.0204582214355 92.2373733520508 17.8418312072754 0 0.8265585 0.5628508
-13.4800844192505 80.7403717041016 34.7254257202148 0 0.8265585 0.5628508
15.3193817138672 74.3173141479492 13.4972114562988 0 0.2356186 -0.9718456
8.38932704925537 92.2373733520508 17.8418312072754 0 0.2356186 -0.9718456
-16.950511932373 74.3173141479492 13.4972114562988 0 0.2356186 -0.9718456
-10.0204582214355 92.2373733520508 17.8418312072754 0 0.2356186 -0.9718456
12.020131111145 26.3066463470459 14.5328273773193 0 -0.02156552 -0.9997674
15.3193817138672 74.3173141479492 13.4972114562988 0 -0.02156552 -0.9997674
-13.6512613296509 26.3066463470459 14.5328273773193 0 -0.02156552 -0.9997674
-16.950511932373 74.3173141479492 13.4972114562988 0 -0.02156552 -0.9997674
-13.6512613296509 26.3066463470459 14.5328273773193 0 -0.9761602 -0.2170516
-11.2427101135254 23.1547775268555 28.7079334259033 0 -0.9761602 -0.2170516
12.020131111145 26.3066463470459 14.5328273773193 0 -0.9761602 -0.2170516
9.61157989501953 23.1547775268555 28.7079334259033 0 -0.9761602 -0.2170516
-13.4800844192505 80.7403717041016 34.7254257202148 -0.9054593 0.4134352 0.09599345
-16.8569965362549 75.4234085083008 25.7723484039307 -0.9054593 0.4134352 0.09599345
-10.0204582214355 92.2373733520508 17.8418312072754 -0.9054593 0.4134352 0.09599345
-16.8569965362549 75.4234085083008 25.7723484039307 -0.9302455 0.366023 -0.02589492
-16.950511932373 74.3173141479492 13.4972114562988 -0.9302455 0.366023 -0.02589492
-10.0204582214355 92.2373733520508 17.8418312072754 -0.9302455 0.366023 -0.02589492
15.2258644104004 75.4234085083008 25.7723484039307 0.9054593 0.4134352 0.0959934
8.38932704925537 92.2373733520508 17.8418312072754 0.9054593 0.4134352 0.0959934
11.8489532470703 80.7403717041016 34.7254257202148 0.9054593 0.4134352 0.0959934
15.2258644104004 75.4234085083008 25.7723484039307 0.9302455 0.3660231 -0.02589478
8.38932704925537 92.2373733520508 17.8418312072754 0.9302455 0.3660231 -0.02589478
15.3193817138672 74.3173141479492 13.4972114562988 0.9302455 0.3660231 -0.02589478
15.4207353591919 31.2418384552002 22.3141632080078 0.9362254 -0.1309836 -0.3260755
20.7351627349854 55.6194877624512 27.7804718017578 0.8857867 -0.09106252 -0.455071
12.020131111145 26.3066463470459 14.5328273773193 0.9298463 -0.07168298 -0.3608982
15.3193817138672 74.3173141479492 13.4972114562988 0.8982732 -0.07108261 -0.4336503
-15.8231287002563 44.666934967041 38.3109512329102 -0.8693369 -0.3436547 0.3551828
-11.2427101135254 23.1547775268555 28.7079334259033 -0.8693369 -0.3436547 0.3551828
-17.0518665313721 31.2418384552002 22.3141632080078 -0.8693369 -0.3436547 0.3551828
-15.8231287002563 44.666934967041 38.3109512329102 -0.918108 -0.2660271 0.2937811
-17.0518665313721 31.2418384552002 22.3141632080078 -0.918108 -0.2660271 0.2937811
-22.3662929534912 55.6194877624512 27.7804718017578 -0.918108 -0.2660271 0.2937811
9.61157989501953 23.1547775268555 28.7079334259033 0.8693369 -0.3436547 0.3551828
15.4207353591919 31.2418384552002 22.3141632080078 0.8693369 -0.3436547 0.3551828
14.1919984817505 44.666934967041 38.3109512329102 0.8693369 -0.3436547 0.3551828
15.4207353591919 31.2418384552002 22.3141632080078 0.918108 -0.2660271 0.293781
20.7351627349854 55.6194877624512 27.7804718017578 0.918108 -0.2660271 0.293781
14.1919984817505 44.666934967041 38.3109512329102 0.918108 -0.2660271 0.293781
-17.0518665313721 31.2418384552002 22.3141632080078 -0.9362254 -0.1309835 -0.3260756
-13.6512613296509 26.3066463470459 14.5328273773193 -0.9298462 -0.07168298 -0.3608983
-22.3662929534912 55.6194877624512 27.7804718017578 -0.8857867 -0.09106249 -0.455071
-16.950511932373 74.3173141479492 13.4972114562988 -0.8982732 -0.07108261 -0.4336503
3 2 0 1
3 5 3 4
4 7 6 8 9
3 12 10 11
3 15 13 14
3 18 16 17
4 20 19 21 22
3 25 23 24
4 27 26 28 29
4 31 30 32 33
4 35 34 36 37
4 39 38 40 41
4 43 42 44 45
4 47 46 48 49
4 51 50 52 53
3 55 54 56
3 58 57 59
3 61 62 60
3 64 63 65
4 67 66 68 69
3 71 70 72
3 74 73 75
3 77 78 76
3 80 81 79
4 83 82 84 85
