ply
format ascii 1.0
comment File exported by Rhinoceros Version 7.0
element vertex 70
property float x
property float y
property float z
property float nx
property float ny
property float nz
element face 38
property list uchar uint vertex_indices
end_header
80 -2.60990333557129 148.812210083008 0.5257311 0 0.8506508
0 27.9473781585693 198.254928588867 0.5257311 1.496003E-08 0.8506508
0 -33.1671829223633 198.254928588867 0.5257311 -1.496003E-08 0.8506508
49.4427185058594 46.8328170776367 167.697647094727 0.5257311 2.992005E-08 0.8506508
49.4427185058594 -52.0526237487793 167.697647094727 0.5257311 -2.992005E-08 0.8506508
0 27.9473781585693 198.254928588867 -0.5257311 3.809481E-09 0.8506508
-80 -2.60990333557129 148.812210083008 -0.5257311 5.714221E-09 0.8506508
-49.4427185058594 -52.0526237487793 167.697647094727 -0.5257311 -9.245805E-09 0.8506508
-49.4427185058594 46.8328170776367 167.697647094727 -0.5257311 2.992005E-08 0.8506508
0 -33.1671829223633 198.254928588867 -0.5257311 0 0.8506508
-30.5572814941406 77.3900985717773 118.254936218262 -0.8506508 0.5257311 5.92119E-16
-80 -2.60990333557129 87.6976547241211 -0.8506508 0.5257311 -9.889753E-09
-80 -2.60990333557129 148.812210083008 -0.8506508 0.5257311 9.889754E-09
-49.4427185058594 46.8328170776367 167.697647094727 -0.8506508 0.5257311 1.977951E-08
-49.4427185058594 46.8328170776367 68.8122177124023 -0.8506508 0.5257311 -1.977951E-08
-80 -2.60990333557129 87.6976547241211 -0.5257311 0 -0.8506508
0 27.9473781585693 38.2549324035645 -0.5257311 3.136778E-08 -0.8506508
0 -33.1671829223633 38.2549324035645 -0.5257311 -3.136778E-08 -0.8506508
-49.4427185058594 46.8328170776367 68.8122177124023 -0.5257311 6.273555E-08 -0.8506508
-49.4427185058594 -52.0526237487793 68.8122177124023 -0.5257311 -6.273555E-08 -0.8506508
-80 -2.60990333557129 87.6976547241211 -0.8506508 -0.5257311 6.517999E-09
-49.4427185058594 -52.0526237487793 68.8122177124023 -0.8506508 -0.5257311 1.3036E-08
-30.5572814941406 -82.6099014282227 118.254936218262 -0.8506508 -0.5257311 -5.92119E-16
-49.4427185058594 -52.0526237487793 167.697647094727 -0.8506508 -0.5257311 -1.3036E-08
-80 -2.60990333557129 148.812210083008 -0.8506508 -0.5257311 -6.517999E-09
0 -33.1671829223633 38.2549324035645 0 -0.8506508 -0.5257311
30.5572814941406 -82.6099014282227 118.254936218262 -1.158827E-08 -0.8506508 -0.5257311
-30.5572814941406 -82.6099014282227 118.254936218262 1.158827E-08 -0.8506508 -0.5257311
49.4427185058594 -52.0526237487793 68.8122177124023 -2.317655E-08 -0.8506508 -0.5257311
-49.4427185058594 -52.0526237487793 68.8122177124023 2.317655E-08 -0.8506508 -0.5257311
80 -2.60990333557129 87.6976547241211 0.8506508 -0.5257311 6.517999E-09
30.5572814941406 -82.6099014282227 118.254936218262 0.8506508 -0.5257311 -5.92119E-16
49.4427185058594 -52.0526237487793 68.8122177124023 0.8506508 -0.5257311 1.3036E-08
49.4427185058594 -52.0526237487793 167.697647094727 0.8506508 -0.5257311 -1.3036E-08
80 -2.60990333557129 148.812210083008 0.8506508 -0.5257311 -6.517999E-09
-30.5572814941406 -82.6099014282227 118.254936218262 7.714926E-09 -0.8506508 0.5257311
0 -33.1671829223633 198.254928588867 0 -0.8506508 0.5257311
-49.4427185058594 -52.0526237487793 167.697647094727 1.542985E-08 -0.8506508 0.5257311
49.4427185058594 -52.0526237487793 167.697647094727 -1.542985E-08 -0.8506508 0.5257311
30.5572814941406 -82.6099014282227 118.254936218262 -7.714926E-09 -0.8506508 0.5257311
0 27.9473781585693 38.2549324035645 0 0.8506508 -0.5257311
-30.5572814941406 77.3900985717773 118.254936218262 -1.809363E-08 0.8506508 -0.5257311
30.5572814941406 77.3900985717773 118.254936218262 1.809363E-08 0.8506508 -0.5257311
49.4427185058594 46.8328170776367 68.8122177124023 3.618726E-08 0.8506508 -0.5257311
-49.4427185058594 46.8328170776367 68.8122177124023 -3.618726E-08 0.8506508 -0.5257311
80 -2.60990333557129 87.6976547241211 0.8506508 0.5257311 -9.889753E-09
49.4427185058594 46.8328170776367 68.8122177124023 0.8506508 0.5257311 -1.977951E-08
30.5572814941406 77.3900985717773 118.254936218262 0.8506508 0.5257311 5.92119E-16
49.4427185058594 46.8328170776367 167.697647094727 0.8506508 0.5257311 1.977951E-08
80 -2.60990333557129 148.812210083008 0.8506508 0.5257311 9.889754E-09
0 -33.1671829223633 38.2549324035645 0.5257311 -3.136778E-08 -0.8506508
80 -2.60990333557129 87.6976547241211 0.5257311 0 -0.8506508
49.4427185058594 -52.0526237487793 68.8122177124023 0.5257311 -6.273555E-08 -0.8506508
49.4427185058594 46.8328170776367 68.8122177124023 0.5257311 6.273555E-08 -0.8506508
0 27.9473781585693 38.2549324035645 0.5257311 3.136778E-08 -0.8506508
0 27.9473781585693 198.254928588867 0.3568222 0.4177745 0.8355492
49.4427185058594 46.8328170776367 167.697647094727 0.3568222 0.4177745 0.8355492
0 82.6099014282227 170.923675537109 0.3568222 0.4177745 0.8355492
30.5572814941406 77.3900985717773 118.254936218262 0.5773503 0.7745966 0.2581989
0 82.6099014282227 170.923675537109 0.5773503 0.7745966 0.2581989
49.4427185058594 46.8328170776367 167.697647094727 0.5773503 0.7745966 0.2581989
30.5572814941406 77.3900985717773 118.254936218262 0 0.9951249 -0.09862313
-30.5572814941406 77.3900985717773 118.254936218262 0 0.9951249 -0.09862313
0 82.6099014282227 170.923675537109 0 0.9951249 -0.09862313
-30.5572814941406 77.3900985717773 118.254936218262 -0.5773503 0.7745966 0.2581989
-49.4427185058594 46.8328170776367 167.697647094727 -0.5773503 0.7745966 0.2581989
0 82.6099014282227 170.923675537109 -0.5773503 0.7745966 0.2581989
-49.4427185058594 46.8328170776367 167.697647094727 -0.3568222 0.4177745 0.8355492
0 27.9473781585693 198.254928588867 -0.3568222 0.4177745 0.8355492
0 82.6099014282227 170.923675537109 -0.3568222 0.4177745 0.8355492
3 0 1 2
3 1 0 3
3 4 0 2
3 5 6 7
3 8 6 5
3 9 5 7
3 10 11 12
3 12 13 10
3 14 11 10
3 15 16 17
3 16 15 18
3 19 15 17
3 20 21 22
3 23 24 22
3 20 22 24
3 25 26 27
3 26 25 28
3 29 25 27
3 30 31 32
3 33 31 34
3 30 34 31
3 35 36 37
3 38 36 39
3 35 39 36
3 40 41 42
3 42 43 40
3 44 41 40
3 45 46 47
3 48 49 47
3 45 47 49
3 50 51 52
3 53 51 54
3 50 54 51
3 55 56 57
3 58 59 60
3 61 62 63
3 64 65 66
3 67 68 69
